<?xml version="1.0" encoding="utf-8"?>
<!-- Generator: Adobe Illustrator 21.1.0, SVG Export Plug-In . SVG Version: 6.00 Build 0)  -->
<svg version="1.1" id="Layer_1" xmlns="http://www.w3.org/2000/svg" xmlns:xlink="http://www.w3.org/1999/xlink" x="0px" y="0px"
	 viewBox="0 0 1600 600" style="enable-background:new 0 0 1600 600;" xml:space="preserve">
<style type="text/css">
	.st0{fill:none;stroke:#808080;stroke-width:5;stroke-linejoin:round;stroke-miterlimit:10;}
	.st1{fill:#808080;}
	.st2{fill:#E6E6E6;stroke:#666666;stroke-width:5;stroke-linejoin:round;stroke-miterlimit:10;}
	.st3{fill:#F2F2F2;stroke:#808080;stroke-width:5;stroke-linejoin:round;stroke-miterlimit:10;}
</style>
<path class="st0" d="M395.5,292.5c-8.7,76.3-17.3,152.7-26,229c-28,20.3-56,40.7-84,61c-23.3-93.3-46.7-186.7-70-280
	c25.3-94.7,50.7-189.3,76-284c23,11.3,46,22.7,69,34C372.2,132.5,383.8,212.5,395.5,292.5z"/>
<g>
	<path class="st1" d="M506.4,195.7h6.7v72.8h0.3c15.8-9.7,33.8-14.5,50-14.5c23.6,0,37.1,9.4,37.1,33.3v96.4h-6.7v-95.1
		c0-21.2-10.2-28.7-32.8-28.7c-15.6,0-32.2,4.8-47.8,14.5v109.3h-6.7V195.7z"/>
	<path class="st1" d="M623.4,322.2v-3c0-44,24.4-64.7,55.1-64.7c34.4,0,49.4,22.6,49.4,59.9v3.2h-97.8v4.6
		c0,38.7,16.9,58.3,53.7,58.3c17.2,0,30.6-4.3,39.2-8.1v5.1c-7.8,4.6-21.5,8.9-40,8.9C643.3,386.4,623.4,364.4,623.4,322.2z
		 M630.4,312h90.2c0-32.2-12.9-51.8-42.4-51.8C652.7,260.2,632.6,276.8,630.4,312z"/>
	<path class="st1" d="M752.1,256.4h6.4V269h0.5c15.8-9.7,31.2-14.5,45.4-14.5c15,0,25.5,5.1,30.9,15.3h0.5
		c18.3-11.5,33.8-15.3,47.8-15.3c20.9,0,35.2,9.4,35.2,33.6v96.4h-6.4v-95.3c0-21.2-11.5-28.7-30.6-28.7c-12.9,0-27.7,4-44.9,14.5
		c1.1,3.8,1.9,7.8,1.9,13.2v96.4h-7v-95.3c0-21.2-9.9-28.7-28.7-28.7c-14.5,0-28.7,4.6-44.3,14.8v109.3h-6.7V256.4z"/>
	<path class="st1" d="M950.3,216.7h7v9.9h-7V216.7z M950.5,256.1h6.7V384h-6.7V256.1z"/>
	<path class="st1" d="M979,377.3v-5.9c9.9,4.8,20.9,9.1,38.9,9.1c27.1,0,36-12.4,36-27.9c0-17.7-8.1-23.9-28.2-29.5l-15.6-4.8
		c-19.6-5.4-28.7-13.7-28.7-33c0-18.3,13.2-30.6,38.7-30.6c16.1,0,27.1,3.8,34.1,7.8v5.6c-8.9-4.3-21.2-7.5-33.6-7.5
		c-22,0-32.8,9.7-32.8,24.4c0,15.6,6.4,22,24.7,27.7l15.6,4.6c21.5,6.4,32.5,13.7,32.5,35.2c0,18.8-11.5,34.1-42.2,34.1
		C1000.8,386.4,987.6,381.8,979,377.3z"/>
	<path class="st1" d="M1092.6,360.3v-98h-19.3v-6.2h19.3v-30.3h6.7v30.3h37.1v6.2h-37.1v97c0,14.2,4.8,20.1,21.8,20.1
		c6.2,0,12.9-1.3,18-3v5.4c-3.8,1.3-11,3.8-19.3,3.8C1101.2,385.6,1092.6,377,1092.6,360.3z"/>
	<path class="st1" d="M1152.2,322.2v-3c0-43,24.4-64.7,55.6-64.7c32.8,0,55.9,20.9,55.9,64.2v2.4c0,43.2-24.4,65.3-55.9,65.3
		C1175.1,386.4,1152.2,365.4,1152.2,322.2z M1257.2,321.7v-3.5c0-41.1-20.7-58-49.4-58c-28.5,0-49.1,20.1-49.1,58.8v3.8
		c0,39.7,20.4,58,49.1,58S1257.2,361.1,1257.2,321.7z"/>
	<path class="st1" d="M1287.9,256.4h6.4V269h0.5c15.8-9.7,33.8-14.5,50-14.5c23.6,0,37.1,9.4,37.1,33.6v96.4h-6.7v-95.3
		c0-21.2-10.2-28.7-32.8-28.7c-15.6,0-32.2,4.8-47.8,14.8v109.3h-6.7V256.4z"/>
	<path class="st1" d="M1404.9,322.2v-3c0-44,24.4-64.7,55.1-64.7c34.4,0,49.4,22.6,49.4,59.9v3.2h-97.8v4.6
		c0,38.7,16.9,58.3,53.7,58.3c17.2,0,30.6-4.3,39.2-8.1v5.1c-7.8,4.6-21.5,8.9-40,8.9C1424.8,386.4,1404.9,364.4,1404.9,322.2z
		 M1411.9,312h90.2c0-32.2-12.9-51.8-42.4-51.8C1434.2,260.2,1414.1,276.8,1411.9,312z"/>
</g>
<polygon class="st2" points="77.5,438.5 215.5,302.5 291.5,18.5 179.5,63.5 49.5,283.5 "/>
<polygon class="st3" points="77.5,438.5 285.5,582.5 215.5,302.5 "/>
</svg>
